<svg xmlns="http://www.w3.org/2000/svg" viewBox="0 0 284.03 50">
  <title>
    imagotype-white-transparent
  </title>
  <g id="Capa_2" data-name="Capa 2">
    <g id="Capa_1-2" data-name="Capa 1">
      <g id="imagotype-white-transparent">
        <path d="M88.28,20.4c0,7.52-5.61,12.47-14.08,12.47H69.08v9.39H62.5V8.63H75.17C83.05,8.63,88.28,13.33,88.28,20.4Zm-6.48,0c0-3.31-2.76-5.59-6.87-5.59H69.08V26.68h5.85C79,26.68,81.8,24.16,81.8,20.4Z" style="fill:#fff"/>
        <path d="M97.78,7.14V42.26H91.44V7.14Z" style="fill:#fff"/>
        <path d="M125.42,18.67V42.26h-6.34V40.93a11.9,11.9,0,0,1-6.62,1.93c-6.39,0-11.51-5.54-11.51-12.37s5.12-12.42,11.51-12.42A12,12,0,0,1,119.08,20V18.67ZM119.08,34.2V26.73A6.38,6.38,0,0,0,113.43,24a6.23,6.23,0,0,0-6.15,6.53A6.22,6.22,0,0,0,113.43,37,6.38,6.38,0,0,0,119.08,34.2Z" style="fill:#fff"/>
        <path d="M190.9,29.16v13.1h-6.33V29.16c0-3.67-1.89-5.2-4.69-5.2a6.11,6.11,0,0,0-5,2.47,19.07,19.07,0,0,1,.14,2.33v13.5h-6.33V28.76c0-3.61-1.89-4.8-4.31-4.8a6.33,6.33,0,0,0-5.27,2.77V42.26h-6.34V18.67h6.34v1.58a8.68,8.68,0,0,1,6.09-2.18,9.42,9.42,0,0,1,7.35,3,11.15,11.15,0,0,1,7.79-3C186.55,18.07,190.9,22,190.9,29.16Z" style="fill:#fff"/>
        <path d="M217.48,32.37H200.55c.48,2.72,2.22,4.8,5.85,4.8,1.69,0,2.86-.3,3.68-1.34h7c-1.55,4.46-5.66,7-10.74,7-7.4,0-12.28-5.35-12.28-12.37s4.84-12.42,11.9-12.42C213.9,18.07,218.69,24.21,217.48,32.37ZM200.7,28h10.49c-.34-3-2.22-4.4-5.17-4.4A5.17,5.17,0,0,0,200.7,28Z" style="fill:#fff"/>
        <path d="M245.3,7.14V42.26H239V40.93a11.94,11.94,0,0,1-6.63,1.93c-6.38,0-11.51-5.54-11.51-12.42S226,18.07,232.34,18.07A12,12,0,0,1,239,20V7.14ZM239,34.2V26.73A6.38,6.38,0,0,0,233.31,24a6.21,6.21,0,0,0-6.14,6.48A6.22,6.22,0,0,0,233.31,37,6.38,6.38,0,0,0,239,34.2Z" style="fill:#fff"/>
        <path d="M256.39,18.67V42.26h-6.34V18.67Z" style="fill:#fff"/>
        <path d="M284,18.67V42.26h-6.34V40.93a11.9,11.9,0,0,1-6.62,1.93c-6.39,0-11.51-5.54-11.51-12.37s5.12-12.42,11.51-12.42A12,12,0,0,1,277.69,20V18.67ZM277.69,34.2V26.73A6.38,6.38,0,0,0,272,24a6.23,6.23,0,0,0-6.14,6.53A6.21,6.21,0,0,0,272,37,6.38,6.38,0,0,0,277.69,34.2Z" style="fill:#fff"/>
        <path d="M149.58,22.13,138.07,36.87h11.51v5.39h-21v-3l11.85-15.24H128.88V18.67h20.7Z" style="fill:#fff"/>
        <path d="M42.68,7.32a25,25,0,1,0,0,35.36A25,25,0,0,0,42.68,7.32ZM25.11,6.66a2.7,2.7,0,0,1,3.81,0L32.1,9.84,27,14.92,21.93,9.84ZM8.59,27a2.69,2.69,0,0,1,0-3.82l10.8-10.8,5.08,5.08L11.76,30.17ZM32.73,39.7l-3.81,3.82a2.7,2.7,0,0,1-3.81,0L14.3,32.71l7.63-7.62,10.8,10.8A2.7,2.7,0,0,1,32.73,39.7Zm5.09-20.33-8.27,8.26-5.08-5.08L34.64,12.38l3.18,3.18A2.7,2.7,0,0,1,37.82,19.37Z" style="fill:#fff"/>
      </g>
    </g>
  </g>
</svg>
